<svg xmlns="http://www.w3.org/2000/svg" viewBox="0 0 100 100" class="selector">
    <path  fill="none" stroke="#419ef4" stroke-width="5" stroke-linecap="round"
        d="M11.89,48.63,15.2,33.25a11.23,11.23,0,0,1,1.39-3.94,10.4,10.4,0,0,1,4.31-3.2c13.34-6.44,28.38-8.64,43.19-8.87,6.45-.1,13.13.21,18.9,3.09a22.89,22.89,0,0,1,6.83,5.21,13.74,13.74,0,0,1,2.51,3.79,19.61,19.61,0,0,1,1,3.79l1.23,6.34a41.66,41.66,0,0,1,1,7.77c0,5-1.69,9.72-3.38,14.37a27.4,27.4,0,0,1-3.34,7c-3.52,4.79-9.67,6.77-15.47,8.06a163.78,163.78,0,0,1-27.65,3.51,57.55,57.55,0,0,1-8.2,0,33.31,33.31,0,0,1-16.7-6.42" />
</svg>