<svg xmlns="http://www.w3.org/2000/svg" viewBox="0 0 200 100" class="selector">
    <path fill="none" stroke="#419ef4" stroke-width="10" stroke-linecap="round"
        d="M20.08,32c6.23-1.25,11.62-4.62,14.35-9A104.23,104.23,0,0,0,19.36,75.86L28,58.12c2.71-5.54,5.43-11.11,7-16.9.92-3.49,1.41-7.06,2.77-10.47a16.85,16.85,0,0,1,7.57-8.83c.67,2.19,0,4.48-.62,6.67-3.65,12.46-7.3,24.93-12.37,37.1-1.41,3.38-2.93,6.74-4.25,10.14a16.71,16.71,0,0,0,9.39-7.56c1.93-3.22,2.9-6.7,4.39-10C45.32,50.52,51.51,43.54,54,35.64,55.55,30.86,56,25.44,60.65,22c.91,4.38-1.36,8.74-3.42,12.9a180,180,0,0,0-14.76,42c6.05-1.75,8.3-7.13,9.89-11.81Q58.51,47,66.5,29.26c1.26-2.79,3-5.92,6.71-6.89.91,18.76-13.95,35.81-18.86,54.22a12.68,12.68,0,0,0,9.09-3.41,19.53,19.53,0,0,0,4.43-7.12c5.89-14.22,8-29.19,14.22-43.33a2,2,0,0,1,1.47-1.37c1.15-.14,1.81.94,2,1.8,2.06,9.1-1.67,18.36-6.27,26.92s-10.15,17-12,26.12c2.21.5,4.09-1.23,5.2-2.73A119.34,119.34,0,0,0,93.05,29.32c.64-2.81,1.65-6.11,5.2-7.17,3.18,1.54,2.65,5.09,1.69,7.83A306.52,306.52,0,0,1,79.28,76.16c4.67-.92,7.19-4.59,9.12-7.9,2.89-4.94,5.75-9.89,8.53-14.87,3.15-5.64,6.24-11.41,7-17.49.32-2.46.27-5,1-7.38a9.19,9.19,0,0,1,5.45-5.93c1.49,2.73,1,5.82.34,8.73-3.56,15.06-12.67,29.16-16.22,44.22,3.36,1.54,8,.27,10.49-2s3.39-5.27,4.2-8.15l7.41-26.11c1.66-5.83,3.53-12,9-16.3,2.43,1,2.1,3.62,1.43,5.62L111,76.73c5.55-1.45,8.13-6.11,9.83-10.31a130.5,130.5,0,0,0,7.68-26.55c.6-3.45,1.09-7,3-10.15a13.69,13.69,0,0,1,10.4-6.29c1.6,18.17-10.16,35.27-18.09,52.5,4.51-.88,7-4.42,8.75-7.64A129.19,129.19,0,0,0,144.08,40.1c1-3.59,1.8-7.24,3.62-10.65a18.46,18.46,0,0,1,9-8.45,15.87,15.87,0,0,1-.31,7A150.66,150.66,0,0,1,136.2,77.83c2.55.8,4.91-1.37,6.13-3.22A143.89,143.89,0,0,0,157.07,45.7c2.41-6.48,4.34-13.15,8.67-19.05,2.26,2.23,1.54,5.36.67,8.08A222.18,222.18,0,0,1,154.49,64.2c-1.94,4-4,8.41-1.74,12.28,4.2-5.73,7-12,9.7-18.17l13.74-31.07c1.38.12,1.6,1.54,1.41,2.56-2.78,15-12,29.31-12.55,44.5a88.47,88.47,0,0,0,15-33.5c2.12,5.34,1.1,11.09-.7,16.49S175,68,174.06,73.51c3.89-1.37,6.84-4.14,7.74-7.28" />
</svg>