<svg xmlns="http://www.w3.org/2000/svg" viewBox="0 0 100 100" id="transition-overlay-svg">
    <path fill="none" class="svg-stroke-light" stroke-width="30" stroke-linecap="round" id="transition-overlay-svg-path"
        d="M3.14,15.38l85.41,0c1.85,0,3.81,0,5.36,1,2.6,1.67,3,5.25,3.09,8.34.1,2.54.16,5.25-1.18,7.42a9.43,9.43,0,0,1-3.58,3.16c-4.44,2.46-9.7,2.84-14.77,2.89-18.08.18-36.06-3.09-54.14-2.72-6.33.12-13,.82-18.16,4.51a4.89,4.89,0,0,0-1.84,2.07,5.11,5.11,0,0,0-.1,2.52A31.5,31.5,0,0,0,6.62,55a7,7,0,0,0,1.57,2.14,6.77,6.77,0,0,0,3.11,1.26,56.37,56.37,0,0,0,8.9.87q33.71,1.43,67.47.73a5.41,5.41,0,0,1,2.68.4c1.54.82,1.91,2.82,2.09,4.56.46,4.43.81,9-.27,13.29s-3.81,8.47-8,10.13c-2.56,1-5.41,1-8.17,1l-15.52-.09c-10.37-.06-20.76-.13-31.06-1.32C21.39,87,13.31,85.4,5.2,86.06" />
</svg>